<svg width="26" height="30" viewBox="0 0 26 30" fill="none" xmlns="http://www.w3.org/2000/svg">
<g filter="url(#filter0_d)">
<path d="M13 2.04176C13.8525 2.04176 14.67 2.38715 15.2728 3.00193C15.8756 3.61672 16.2143 4.45055 16.2143 5.32V5.97564H9.78571V5.32C9.78571 4.45055 10.1244 3.61672 10.7272 3.00193C11.33 2.38715 12.1475 2.04176 13 2.04176ZM17.5 5.97564V5.32C17.5 4.10278 17.0259 2.93541 16.182 2.07471C15.3381 1.21401 14.1935 0.730469 13 0.730469C11.8065 0.730469 10.6619 1.21401 9.81802 2.07471C8.97411 2.93541 8.5 4.10278 8.5 5.32V5.97564H4V19.0886C4 19.7841 4.27092 20.4512 4.75315 20.943C5.23539 21.4349 5.88944 21.7112 6.57143 21.7112H19.4286C20.1106 21.7112 20.7646 21.4349 21.2468 20.943C21.7291 20.4512 22 19.7841 22 19.0886V5.97564H17.5ZM5.28571 7.28694H20.7143V19.0886C20.7143 19.4364 20.5788 19.7699 20.3377 20.0158C20.0966 20.2617 19.7696 20.3999 19.4286 20.3999H6.57143C6.23044 20.3999 5.90341 20.2617 5.66229 20.0158C5.42117 19.7699 5.28571 19.4364 5.28571 19.0886V7.28694Z" fill="white"/>
</g>
<defs>
<filter id="filter0_d" x="0" y="0.730469" width="26" height="28.9807" filterUnits="userSpaceOnUse" color-interpolation-filters="sRGB">
<feFlood flood-opacity="0" result="BackgroundImageFix"/>
<feColorMatrix in="SourceAlpha" type="matrix" values="0 0 0 0 0 0 0 0 0 0 0 0 0 0 0 0 0 0 127 0"/>
<feOffset dy="4"/>
<feGaussianBlur stdDeviation="2"/>
<feColorMatrix type="matrix" values="0 0 0 0 0 0 0 0 0 0 0 0 0 0 0 0 0 0 0.25 0"/>
<feBlend mode="normal" in2="BackgroundImageFix" result="effect1_dropShadow"/>
<feBlend mode="normal" in="SourceGraphic" in2="effect1_dropShadow" result="shape"/>
</filter>
</defs>
</svg>
