<svg width="103" height="75" viewBox="0 0 103 75" fill="none" xmlns="http://www.w3.org/2000/svg">
<path d="M102.999 27.881C102.998 27.7712 102.987 27.6617 102.968 27.5538C102.963 27.5295 102.959 27.5053 102.954 27.4813C102.934 27.3853 102.907 27.2911 102.873 27.1996L102.861 27.168L102.86 27.1647L96.6624 10.9435C96.2699 9.90642 95.588 9.0172 94.7057 8.39178C93.8234 7.76635 92.7816 7.43374 91.7162 7.43729H74.5862V1.85932C74.5862 1.3662 74.3991 0.893274 74.0661 0.544583C73.733 0.195893 73.2813 0 72.8103 0H5.32759C3.91509 0.00159952 2.56089 0.589791 1.5621 1.63552C0.563316 2.68124 0.00152772 4.09909 0 5.57797V57.639C0.00152772 59.1179 0.563316 60.5357 1.5621 61.5814C2.56089 62.6272 3.91509 63.2154 5.32759 63.217H12.5598C12.986 66.3149 14.4644 69.1482 16.7239 71.1976C18.9834 73.2469 21.8726 74.375 24.8621 74.375C27.8515 74.375 30.7408 73.2469 33.0003 71.1976C35.2598 69.1482 36.7381 66.3149 37.1644 63.217H65.8356C66.2619 66.3149 67.7402 69.1482 69.9997 71.1976C72.2592 73.2469 75.1485 74.375 78.1379 74.375C81.1274 74.375 84.0166 73.2469 86.2761 71.1976C88.5357 69.1482 90.014 66.3149 90.4402 63.217H97.6724C99.0849 63.2154 100.439 62.6272 101.438 61.5814C102.437 60.5357 102.998 59.1179 103 57.639V27.8898L102.999 27.881ZM91.7162 11.1559C92.0714 11.1547 92.4187 11.2656 92.7128 11.4742C93.007 11.6827 93.2343 11.9792 93.3651 12.325L98.6012 26.0305H74.5862V11.1559H91.7162ZM5.32759 3.71865H71.0345V37.1865H3.55172V5.57797C3.55219 5.085 3.73944 4.61236 4.07238 4.26377C4.40532 3.91519 4.85674 3.71914 5.32759 3.71865ZM3.55172 57.639V40.9051H71.0345V50.6856C69.6384 51.7043 68.4568 53.0119 67.5626 54.5277C66.6684 56.0435 66.0806 57.7353 65.8356 59.4983H37.1644C36.7381 56.4004 35.2598 53.567 33.0003 51.5177C30.7408 49.4683 27.8515 48.3403 24.8621 48.3403C21.8726 48.3403 18.9834 49.4683 16.7239 51.5177C14.4644 53.567 12.986 56.4004 12.5598 59.4983H5.32759C4.85674 59.4978 4.40532 59.3018 4.07238 58.9532C3.73944 58.6046 3.55219 58.132 3.55172 57.639ZM24.8621 70.6543C23.1059 70.6543 21.3892 70.109 19.929 69.0875C18.4688 68.066 17.3307 66.614 16.6587 64.9153C15.9866 63.2166 15.8108 61.3473 16.1534 59.544C16.496 57.7406 17.3417 56.0841 18.5834 54.7839C19.8252 53.4838 21.4074 52.5984 23.1298 52.2397C24.8522 51.881 26.6376 52.0651 28.26 52.7687C29.8825 53.4723 31.2693 54.6639 32.2449 56.1927C33.2206 57.7215 33.7414 59.5189 33.7414 61.3576C33.7388 63.8224 32.8025 66.1855 31.1378 67.9284C29.4732 69.6712 27.2162 70.6516 24.8621 70.6543ZM78.1379 70.6543C76.3818 70.6543 74.665 70.109 73.2048 69.0875C71.7447 68.066 70.6066 66.614 69.9345 64.9153C69.2625 63.2166 69.0866 61.3473 69.4292 59.544C69.7718 57.7406 70.6175 56.0841 71.8593 54.7839C73.1011 53.4838 74.6832 52.5984 76.4057 52.2397C78.1281 51.881 79.9134 52.0651 81.5359 52.7687C83.1584 53.4723 84.5451 54.6639 85.5208 56.1927C86.4965 57.7215 87.0172 59.5189 87.0172 61.3576C87.0147 63.8224 86.0783 66.1855 84.4137 67.9284C82.7491 69.6712 80.4921 70.6516 78.1379 70.6543ZM99.4483 57.639C99.4478 58.132 99.2606 58.6046 98.9276 58.9532C98.5947 59.3018 98.1433 59.4978 97.6724 59.4983H90.4402C90.186 57.6476 89.5536 55.876 88.5863 54.3042C87.619 52.7325 86.3394 51.3975 84.8347 50.3904C83.3301 49.3832 81.6357 48.7275 79.8672 48.4679C78.0986 48.2084 76.2974 48.3511 74.5862 48.8862V29.7492H99.4483V57.639Z" fill="white"/>
</svg>
