<svg width="93" height="98" viewBox="0 0 93 98" fill="none" xmlns="http://www.w3.org/2000/svg">
<path d="M72.169 31.035C72.1657 31.0284 72.1641 31.0218 72.1609 31.0152L72.1571 31.01C71.8672 30.48 71.4498 30.0419 70.948 29.741L47.188 15.5028C46.7025 15.2141 46.1557 15.0625 45.5996 15.0625C45.0436 15.0625 44.4967 15.2141 44.0112 15.5028L20.2512 29.741C19.7483 30.0427 19.3303 30.4822 19.0402 31.0138C19.0389 31.0166 19.0367 31.0184 19.0354 31.0212C19.0319 31.0281 19.03 31.0356 19.0267 31.0425C18.7476 31.5623 18.6004 32.1506 18.5996 32.7494V61.1227C18.6 61.7351 18.7532 62.3364 19.0434 62.865C19.3336 63.3937 19.7504 63.8307 20.2512 64.1314L44.0112 78.3695C44.4751 78.645 44.9955 78.7944 45.5264 78.8047C45.5488 78.8065 45.5702 78.8122 45.5929 78.8125H45.6028C45.6298 78.8125 45.6555 78.8062 45.682 78.8042C46.2098 78.7923 46.7268 78.643 47.188 78.3692L70.948 64.1311C71.4488 63.8305 71.8657 63.3936 72.1559 62.8649C72.4461 62.3363 72.5992 61.7351 72.5996 61.1227V32.7497C72.5989 32.148 72.4505 31.557 72.169 31.0353V31.035ZM45.0701 17.5082C45.232 17.412 45.4143 17.3614 45.5996 17.3614C45.785 17.3614 45.9672 17.412 46.1291 17.5082L69.3248 31.4087L58.8706 37.7359L34.859 23.6272L45.0701 17.5082ZM45.8504 45.6161L21.8909 31.3986L32.645 24.9544L56.6677 39.0691L45.8504 45.6161ZM21.3101 62.1257C21.1431 62.0255 21.0041 61.8798 20.9073 61.7036C20.8105 61.5273 20.7595 61.3269 20.7593 61.1227V33.3612L44.7704 47.6088L44.5355 76.0434L21.3101 62.1257ZM69.8891 62.1257L46.6961 76.0238L46.9304 47.6088L57.7556 41.0573V53.9864C57.7556 54.2915 57.8693 54.5842 58.0719 54.7999C58.2744 55.0157 58.5491 55.1369 58.8356 55.1369C59.122 55.1369 59.3967 55.0157 59.5992 54.7999C59.8018 54.5842 59.9156 54.2915 59.9156 53.9864V39.7499L70.4396 33.3805V61.1227C70.4395 61.3269 70.3884 61.5273 70.2916 61.7036C70.1948 61.8798 70.0558 62.0255 69.8888 62.1257H69.8891Z" fill="white"/>
<path d="M90.5999 49.0625C90.5999 77.1125 71.284 95.8125 47.4536 95.8125C28.0848 95.8125 12.456 84.8964 7 67.7625" stroke="white" stroke-width="3" stroke-linecap="round" stroke-linejoin="round"/>
<path d="M2 48.75C2 20.7 21.316 2 45.1464 2C64.5196 2 80.144 12.9161 85.5999 30.05" stroke="white" stroke-width="3" stroke-linecap="round" stroke-linejoin="round"/>
<path d="M24 72.1248L6.4 67.4497L2 86.1499" stroke="white" stroke-width="3" stroke-linecap="round" stroke-linejoin="round"/>
<path d="M68 25.3748L85.6 30.0498L90 11.3496" stroke="white" stroke-width="3" stroke-linecap="round" stroke-linejoin="round"/>
</svg>
