<svg width="16" height="18" viewBox="0 0 16 18" fill="none" xmlns="http://www.w3.org/2000/svg">
<path d="M8.00065 9C10.3018 9 12.1673 7.13452 12.1673 4.83334C12.1673 2.53215 10.3018 0.666672 8.00065 0.666672C5.69946 0.666672 3.83398 2.53215 3.83398 4.83334C3.83398 7.13452 5.69946 9 8.00065 9Z" stroke="white"/>
<path d="M12.167 10.6667H12.4604C13.0696 10.6668 13.6578 10.8895 14.1145 11.2927C14.5711 11.696 14.8648 12.2521 14.9404 12.8567L15.2662 15.46C15.2955 15.6945 15.2746 15.9326 15.2049 16.1584C15.1351 16.3843 15.0182 16.5927 14.8617 16.7698C14.7053 16.947 14.513 17.0889 14.2975 17.186C14.082 17.2832 13.8484 17.3334 13.612 17.3333H2.38871C2.15236 17.3334 1.9187 17.2832 1.70325 17.186C1.48779 17.0889 1.29546 16.947 1.13902 16.7698C0.982584 16.5927 0.865616 16.3843 0.79588 16.1584C0.726144 15.9326 0.705236 15.6945 0.734543 15.46L1.05954 12.8567C1.13512 12.2519 1.42906 11.6955 1.88607 11.2922C2.34308 10.8889 2.93169 10.6664 3.54121 10.6667H3.83371" stroke="white" stroke-linecap="round" stroke-linejoin="round"/>
</svg>
