<svg width="71" height="78" viewBox="0 0 71 78" fill="none" xmlns="http://www.w3.org/2000/svg">
<path d="M53.6504 44.9834C53.6496 47.6615 52.7731 50.2591 51.1661 52.346C49.559 54.4329 47.3179 55.8841 44.8135 56.4592L43.6173 52.711C44.7127 52.5226 45.7545 52.0826 46.6675 51.423C47.5805 50.7633 48.3421 49.9003 48.8973 48.8962H44.2754C43.2808 48.8962 42.327 48.4835 41.6237 47.749C40.9205 47.0145 40.5254 46.0183 40.5254 44.9795V37.1462C40.5254 36.1074 40.9205 35.1112 41.6237 34.3767C42.327 33.6421 43.2808 33.2295 44.2754 33.2295H49.7841C49.3266 29.4438 47.5621 25.9627 44.8218 23.4391C42.0815 20.9156 38.5537 19.5233 34.9004 19.5233C31.2471 19.5233 27.7193 20.9156 24.979 23.4391C22.2387 25.9627 20.4742 29.4438 20.0166 33.2295H25.5254C26.52 33.2295 27.4738 33.6421 28.177 34.3767C28.8803 35.1112 29.2754 36.1074 29.2754 37.1462V44.9795C29.2754 46.0183 28.8803 47.0145 28.177 47.749C27.4738 48.4835 26.52 48.8962 25.5254 48.8962H19.9004C18.9058 48.8962 17.952 48.4835 17.2487 47.749C16.5455 47.0145 16.1504 46.0183 16.1504 44.9795V35.1878C16.1504 24.372 24.5448 15.6045 34.9004 15.6045C45.256 15.6045 53.6504 24.372 53.6504 35.1878V44.9834ZM49.9004 44.9795V37.1462H44.2754V44.9795H49.9004ZM19.9004 37.1462V44.9795H25.5254V37.1462H19.9004Z" fill="white"/>
<path d="M62.125 5.05293C63.3019 5.05293 64.4306 5.58529 65.2628 6.5329C66.095 7.48051 66.5625 8.76574 66.5625 10.1059V50.5293C66.5625 51.8694 66.095 53.1546 65.2628 54.1022C64.4306 55.0499 63.3019 55.5822 62.125 55.5822H51.0312C49.6535 55.5822 48.2946 55.9475 47.0622 56.6491C45.8299 57.3507 44.7579 58.3695 43.9312 59.6246L35.5 72.4236L27.0688 59.6246C26.2421 58.3695 25.1701 57.3507 23.9378 56.6491C22.7054 55.9475 21.3465 55.5822 19.9688 55.5822H8.875C7.6981 55.5822 6.56941 55.0499 5.73721 54.1022C4.90502 53.1546 4.4375 51.8694 4.4375 50.5293V10.1059C4.4375 8.76574 4.90502 7.48051 5.73721 6.5329C6.56941 5.58529 7.6981 5.05293 8.875 5.05293H62.125ZM8.875 0C6.5212 0 4.26381 1.06472 2.59943 2.95994C0.935042 4.85515 0 7.42562 0 10.1059L0 50.5293C0 53.2095 0.935042 55.78 2.59943 57.6752C4.26381 59.5704 6.5212 60.6351 8.875 60.6351H19.9688C20.6576 60.6351 21.3371 60.8178 21.9533 61.1686C22.5694 61.5194 23.1054 62.0288 23.5188 62.6563L31.95 75.4554C32.3633 76.0829 32.8993 76.5923 33.5155 76.9431C34.1317 77.2939 34.8111 77.4766 35.5 77.4766C36.1889 77.4766 36.8683 77.2939 37.4845 76.9431C38.1007 76.5923 38.6367 76.0829 39.05 75.4554L47.4813 62.6563C47.8946 62.0288 48.4306 61.5194 49.0467 61.1686C49.6629 60.8178 50.3424 60.6351 51.0312 60.6351H62.125C64.4788 60.6351 66.7362 59.5704 68.4006 57.6752C70.065 55.78 71 53.2095 71 50.5293V10.1059C71 7.42562 70.065 4.85515 68.4006 2.95994C66.7362 1.06472 64.4788 0 62.125 0L8.875 0Z" fill="white"/>
</svg>
